<?xml version="1.0" encoding="UTF-8"?>
<svg version="1.1" xmlns="http://www.w3.org/2000/svg" width="2128" height="2128">
<path d="M0 0 C702.24 0 1404.48 0 2128 0 C2128 702.24 2128 1404.48 2128 2128 C1425.76 2128 723.52 2128 0 2128 C0 1425.76 0 723.52 0 0 Z " fill="#5CE1E6" transform="translate(0,0)"/>
<path d="M0 0 C10.12340063 2.24964458 10.12340063 2.24964458 14.80859375 3.77734375 C15.86754852 4.12024445 16.9265033 4.46314514 18.01754761 4.81643677 C19.1461319 5.18638763 20.27471619 5.5563385 21.4375 5.9375 C23.29003976 6.53867412 25.14258093 7.13984393 26.99517632 7.74084663 C28.96733778 8.38140698 30.93885996 9.02390058 32.91021729 9.66693115 C39.93417294 11.95759848 46.96337213 14.23211092 53.9921875 16.5078125 C54.70956966 16.74021763 55.42695183 16.97262276 56.16607285 17.21207047 C70.46190266 21.84245071 84.7886515 26.37168074 99.125 30.875 C120.8486211 37.70338484 142.52187083 44.67791615 164.1808548 51.7078476 C184.26065842 58.22479871 204.3598651 64.67123676 224.5 71 C245.57651535 77.62364697 266.6097403 84.37257464 287.625 91.1875 C288.35275887 91.42349663 289.08051773 91.65949326 289.8303299 91.9026413 C291.29457867 92.37747584 292.75882543 92.85231662 294.22307014 93.3271637 C297.81012084 94.49040164 301.39722206 95.65348363 304.984375 96.81640625 C305.68197811 97.04257881 306.37958122 97.26875137 307.09832382 97.50177765 C319.67882729 101.57976657 332.27247802 105.61558078 344.875 109.625 C362.19719819 115.13672181 379.50206377 120.70115696 396.80026245 126.28765488 C427.99347739 136.36139523 459.20959676 146.36226086 490.43617916 156.33207798 C498.05323919 158.76400387 505.67022095 161.19617482 513.28715897 163.62848282 C515.62053234 164.37357339 517.95392648 165.11859887 520.287323 165.86361694 C542.00663114 172.79855818 563.71713791 179.76016977 585.4201355 186.7460022 C600.65205316 191.64813069 615.8939935 196.51663877 631.15057373 201.34143066 C646.39705057 206.16380717 661.62549106 211.04135682 676.8505249 215.93096924 C691.03752798 220.48695276 705.22724938 225.0342351 719.421875 229.56640625 C720.54328856 229.92446287 720.54328856 229.92446287 721.68735695 230.28975296 C726.28710816 231.75835169 730.88692665 233.22673962 735.48675919 234.69508362 C757.79048138 241.81481451 780.08908807 248.94966757 802.375 256.125 C823.27154545 262.8529503 844.18644999 269.52176114 865.10845184 276.16998672 C885.08314394 282.51737512 905.04876661 288.89164816 925 295.3125 C926.15226074 295.68331696 927.30452148 296.05413391 928.49169922 296.43618774 C933.05673801 297.90536105 937.62176773 299.37456251 942.18676758 300.84385681 C953.45426754 304.46958914 964.72634298 308.08096351 976 311.6875 C976.98861023 312.00379364 977.97722046 312.32008728 978.99578857 312.64596558 C991.63176975 316.68826252 1004.26948444 320.72512564 1016.90780067 324.76011467 C1023.0351895 326.71639895 1029.16251875 328.67286978 1035.28983688 330.62937546 C1036.84538663 331.12606713 1038.40094133 331.62274328 1039.95650101 332.11940384 C1062.45285852 339.30209012 1084.94077721 346.51027223 1107.4201355 353.7460022 C1122.64568605 358.64608155 1137.88125202 363.51256386 1153.13143921 368.33538818 C1174.50245807 375.09502334 1195.84079097 381.95638699 1217.18164062 388.81054688 C1223.88623978 390.96373351 1230.5914524 393.11500427 1237.296875 395.265625 C1238.38894257 395.61589752 1239.48101013 395.96617004 1240.60617065 396.32705688 C1246.08058229 398.08285338 1251.55511173 399.83828167 1257.02978516 401.59326172 C1267.35979044 404.90510785 1277.68868599 408.22030765 1288.01409912 411.54644775 C1292.87936598 413.11349162 1297.74520272 414.67876161 1302.61108398 416.24389648 C1304.9256598 416.98894128 1307.23995751 417.73485065 1309.55395508 418.48168945 C1312.76703508 419.51864549 1315.98107071 420.55258921 1319.1953125 421.5859375 C1320.12944977 421.88829315 1321.06358704 422.1906488 1322.02603149 422.50216675 C1328.32090344 424.52155842 1334.60723045 426.25651739 1341 428 C1341 529.97 1341 631.94 1341 737 C1335.39 738.65 1329.78 740.3 1324 742 C1319.50444223 743.41536047 1315.01681849 744.84333954 1310.53515625 746.30078125 C1308.67101289 746.90371318 1306.8068691 747.5066438 1304.94270802 748.10952091 C1302.98922681 748.74172513 1301.03609587 749.37500016 1299.08306885 750.00860596 C1292.86282658 752.02644745 1286.64024944 754.03707252 1280.41793823 756.04852295 C1278.30851573 756.73049397 1276.19917595 757.41272043 1274.08984375 758.0949707 C1261.60977514 762.13069877 1249.11939592 766.13385449 1236.625 770.125 C1223.96904485 774.16851786 1211.31472443 778.21684649 1198.66796875 782.2890625 C1197.53805511 782.65286011 1196.40814148 783.01665771 1195.24398804 783.39147949 C1194.10482941 783.75825806 1192.96567078 784.12503662 1191.79199219 784.50292969 C1168.84335904 791.89166671 1145.87693245 799.22168796 1122.89392853 806.50259399 C1102.30570167 813.02541768 1081.73793011 819.6090624 1061.1875 826.25 C1060.54043468 826.45909878 1059.89336937 826.66819756 1059.22669601 826.88363266 C1057.27669452 827.51379375 1055.32670101 828.14397953 1053.37670898 828.77416992 C1050.81885987 829.60078648 1048.26099748 830.42736197 1045.703125 831.25390625 C1044.45628433 831.65681381 1043.20944366 832.05972137 1041.92481995 832.47483826 C1029.7693585 836.40090416 1017.60486199 840.29849566 1005.4375 844.1875 C1004.43017822 844.50949371 1003.42285645 844.83148743 1002.38500977 845.16323853 C998.33416854 846.45806969 994.28331814 847.75287215 990.23242188 849.04753113 C978.38141917 852.83578059 966.5343928 856.63642106 954.6875 860.4375 C953.58624786 860.79083405 952.48499573 861.14416809 951.35037231 861.50820923 C946.89605097 862.93738865 942.44173348 864.3665801 937.98744202 865.79585266 C930.30845101 868.25973399 922.62894976 870.72202006 914.94921875 873.18359375 C911.68391457 874.23034097 908.41862594 875.2771367 905.15335083 876.32397461 C902.96511178 877.02551478 900.77685898 877.72701207 898.58859253 878.4284668 C885.90685478 882.49405409 873.22817629 886.56892208 860.5546875 890.66015625 C835.31802994 898.80525768 810.06518264 906.890648 784.7677002 914.84494019 C763.54358191 921.52284006 742.37541293 928.36600997 721.21506119 935.24254227 C699.33217824 942.35339271 677.42540756 949.37679132 655.47460938 956.27587891 C636.95480925 962.0979561 618.47003165 968.02250106 600 974 C580.37868222 980.35009233 560.73708175 986.62882223 541.0625 992.8125 C518.73906179 999.8292461 496.47156325 1007.00867366 474.21757889 1014.24185181 C453.34075635 1021.02720946 432.44361443 1027.73556464 411.5 1034.3125 C392.98018716 1040.12912138 374.50393426 1046.06438305 356.0625 1052.125 C339.08114541 1057.7053149 322.09009926 1063.24974903 305.0625 1068.6875 C304.07193604 1069.00385406 303.08137207 1069.32020813 302.06079102 1069.64614868 C296.76495393 1071.33685818 291.46855083 1073.02578732 286.171875 1074.71386719 C273.51924568 1078.74643812 260.86886994 1082.78607424 248.21850586 1086.82574463 C245.11259892 1087.81756012 242.00663834 1088.80920738 238.90063477 1089.80072021 C216.89772132 1096.8249111 194.90854371 1103.89024672 172.9284668 1110.9855957 C154.17634873 1117.0365825 135.39511844 1122.99043506 116.59860229 1128.90188599 C93.00632475 1136.32565513 69.47354628 1143.92914542 45.94946289 1151.56567383 C21.67721935 1159.44504292 21.67721935 1159.44504292 11.6484375 1162.640625 C10.49560776 1163.01111969 10.49560776 1163.01111969 9.31948853 1163.38909912 C4.23372535 1165 4.23372535 1165 2 1165 C1.97690193 1135.59992325 1.95934662 1106.19984681 1.94893467 1076.79976286 C1.94768481 1073.28358213 1.94639041 1069.76740141 1.94506836 1066.2512207 C1.94480605 1065.55157258 1.94454374 1064.85192445 1.94427348 1064.13107487 C1.94051617 1054.3545793 1.93437048 1044.57808785 1.92626567 1034.80159496 C1.82434348 911.83384474 1.82434348 911.83384474 3 856 C23.09299962 849.19359519 43.26115546 842.67249493 63.5 836.3125 C81.53491731 830.64483607 99.54078931 824.90325053 117.5 819 C134.6711418 813.35784867 151.88169163 807.85498362 169.125 802.4375 C190.95651971 795.5782318 212.73720405 788.5736065 234.5 781.5 C256.45064709 774.365512 278.4194095 767.29890896 300.4375 760.375 C317.72084894 754.93988034 334.98042021 749.44360217 352.20288086 743.81860352 C365.11976711 739.60111236 378.05652775 735.44763673 391 731.3125 C395.25003984 729.95455171 399.50005089 728.59651345 403.75 727.23828125 C404.82600967 726.89440369 405.90201935 726.55052612 407.01063538 726.19622803 C419.67865407 722.14605802 432.33922157 718.07273376 445 714 C463.54972167 708.03319775 482.10494931 702.0840031 500.66622925 696.15325928 C513.08469421 692.18447278 525.49735204 688.19821316 537.90234375 684.1875 C539.19163447 683.77070413 540.48092585 683.35391031 541.7702179 682.93711853 C543.72569132 682.3049465 545.68116363 681.67277101 547.63663578 681.04059505 C549.61191386 680.40203245 551.58720366 679.76350612 553.5625 679.125 C554.21646885 678.91360004 554.8704377 678.70220009 555.54422379 678.48439407 C574.77675153 672.26815757 594.03155957 666.12726838 613.3125 660.0625 C633.88428154 653.59153867 654.42059648 647.01737278 674.9375 640.375 C675.62833176 640.1513615 676.31916351 639.92772301 677.03092957 639.69730759 C679.80582599 638.79900246 682.58070519 637.90064417 685.35558319 637.00228214 C686.72288278 636.55962407 688.0901847 636.11697323 689.45748901 635.67432976 C690.81180445 635.23588936 692.16611355 634.79742939 693.52041626 634.35894966 C706.19322364 630.25627792 718.87473316 626.18117423 731.5625 622.125 C732.52470459 621.81728668 733.48690918 621.50957336 734.47827148 621.1925354 C745.65884485 617.61747901 756.84181229 614.04993969 768.02571583 610.48531723 C774.42885932 608.44440895 780.83163159 606.40233828 787.2342329 604.35972977 C791.17446627 603.10279877 795.11491976 601.84656789 799.05593872 600.59210205 C818.08562645 594.53453971 837.07536313 588.37952985 856 582 C854.85378174 581.63463135 853.70756348 581.2692627 852.52661133 580.89282227 C822.58133009 571.34632231 792.64810075 561.76267099 762.72167969 552.15722656 C756.05688401 550.01812127 749.39177399 547.87999679 742.7265625 545.7421875 C741.63537109 545.39219193 740.54417969 545.04219635 739.41992188 544.68159485 C733.89815936 542.91054763 728.37634843 541.13965147 722.85449219 539.36889648 C713.00861902 536.21135353 703.1630029 533.0530258 693.31906128 529.88946533 C667.85362478 521.70572507 642.37315347 513.57110375 616.87463379 505.4911232 C595.7091801 498.78402076 574.56705366 492.00803678 553.43878174 485.18450928 C535.73149145 479.46756652 518.00057628 473.830974 500.25 468.25 C477.86353286 461.2112735 455.53286016 454.01012855 433.21506119 446.75745773 C412.48309163 440.020597 391.73358622 433.34949595 370.9375 426.8125 C351.11878383 420.58236552 331.33012486 414.26494381 311.5625 407.875 C310.23816985 407.4469589 308.91383921 407.01891935 307.58950806 406.59088135 C304.96595061 405.74288065 302.34240198 404.89485267 299.71885681 404.04681396 C299.07737135 403.83946373 298.43588589 403.63211349 297.77496147 403.41847992 C296.48658972 403.00202416 295.19822529 402.58554574 293.90986824 402.16904449 C281.48843828 398.15369776 269.05924381 394.16297166 256.625 390.1875 C255.6435199 389.87369385 254.66203979 389.5598877 253.65081787 389.23657227 C247.30340994 387.2074839 240.95553919 385.17984599 234.60760498 383.15240479 C230.01650409 381.6858344 225.42562218 380.21857939 220.83475399 378.75128078 C212.61912609 376.12546756 204.40335108 373.50011484 196.1875 370.875 C195.42529774 370.63145908 194.66309547 370.38791817 193.87779617 370.13699722 C177.09184654 364.77362362 160.3049803 359.41317093 143.51320457 354.06806183 C137.02948552 352.00418173 130.54593442 349.93977406 124.0625 347.875 C123.3578297 347.65058731 122.65315941 347.42617462 121.92713547 347.19496155 C96.86264434 339.2119771 71.82290692 331.15375418 46.79711914 323.05029297 C46.15384265 322.84203636 45.51056616 322.63377975 44.84779644 322.41921234 C41.89211209 321.46230638 38.93656626 320.5049792 35.98136902 319.54656982 C23.99798406 315.66462271 11.99749107 311.83919714 0 308 C0 206.36 0 104.72 0 0 Z " fill="#FEFEFE" transform="translate(393,696)"/>
<path d="M0 0 C0.03245458 17.56248956 0.05166829 35.12498455 0.0625 52.6875 C0.0629343 53.37030407 0.06336861 54.05310814 0.06381607 54.75660324 C0.09918774 112.00560339 -0.16649374 169.25207941 -0.5 226.5 C-0.50597372 227.5269408 -0.51194743 228.5538816 -0.51810217 229.61194181 C-0.67216653 256.07466863 -0.8326272 282.53735406 -1 309 C-9.37347573 311.71426674 -17.7473397 314.4273318 -26.12165022 317.13902187 C-30.0136916 318.3993439 -33.90561704 319.66002111 -37.79724121 320.92163086 C-57.67245082 327.36453759 -77.56648599 333.7395173 -97.5 340 C-118.51222248 346.60821971 -139.48472812 353.33095697 -160.4375 360.125 C-161.16313267 360.3602879 -161.88876534 360.59557579 -162.63638687 360.83799362 C-164.82441151 361.54749138 -167.01242586 362.25702089 -169.20043945 362.96655273 C-172.06589822 363.89573148 -174.93137873 364.82484317 -177.796875 365.75390625 C-178.84808061 366.09476541 -178.84808061 366.09476541 -179.92052269 366.4425106 C-193.98543517 371.00244507 -208.0658211 375.51321805 -222.15155029 380.00842285 C-234.61691269 383.987334 -247.07485696 387.98844461 -259.5234375 392.01953125 C-260.19450531 392.23680815 -260.86557312 392.45408504 -261.55697632 392.67794609 C-264.99891055 393.79237785 -268.44080253 394.90694006 -271.88269043 396.02151489 C-273.27596028 396.47267662 -274.66923014 396.92383832 -276.0625 397.375 C-276.75167007 397.59818279 -277.44084015 397.82136559 -278.15089417 398.05131149 C-298.05300521 404.49578139 -317.97956984 410.85501697 -337.9375 417.125 C-357.14810378 423.16073578 -376.30911231 429.33356389 -395.4375 435.625 C-420.38742876 443.83060823 -445.3808671 451.88831667 -470.40765381 459.85614014 C-481.49430178 463.38630426 -492.57974057 466.92026715 -503.66537476 470.45361328 C-506.63818265 471.40114042 -509.61102488 472.34855972 -512.58389282 473.29589844 C-538.09746308 481.42641338 -563.59487754 489.60635676 -589.08505249 497.80995178 C-608.75829978 504.14108456 -628.4380638 510.45187438 -648.11975098 516.75671387 C-651.56383842 517.86012827 -655.00770576 518.96422841 -658.45153999 520.06843281 C-668.59167567 523.31963599 -678.73273053 526.5679591 -688.875 529.8125 C-689.65534859 530.06213879 -690.43569717 530.31177757 -691.23969269 530.56898117 C-710.90532772 536.85892356 -730.57668555 543.12319621 -750.33984375 549.1015625 C-757.78568918 551.35895207 -765.18879279 553.70754216 -772.5625 556.19140625 C-774.14336647 556.71980274 -775.72425803 557.24812415 -777.30517578 557.77636719 C-780.24844644 558.76079208 -783.18246557 559.76782583 -786.11279297 560.79003906 C-787.42648101 561.23194353 -788.74043157 561.6730686 -790.0546875 562.11328125 C-791.18374512 562.50298096 -792.31280273 562.89268066 -793.47607422 563.29418945 C-802.14030467 565.02955666 -810.09756217 561.94367555 -818.28515625 559.24609375 C-820.04514198 558.67738304 -820.04514198 558.67738304 -821.84068298 558.09718323 C-825.58395635 556.88533682 -829.32319578 555.66153163 -833.0625 554.4375 C-835.51602697 553.64180971 -837.96980118 552.84688135 -840.42382812 552.05273438 C-853.04110472 547.96185235 -865.63911696 543.81482535 -878.20838928 539.57859802 C-883.54740333 537.78605651 -888.89718989 536.10988304 -894.3125 534.5625 C-901.78339832 532.42556933 -909.13665201 529.98119395 -916.5 527.5 C-925.13937042 524.59037669 -933.78019897 521.81204796 -942.54516602 519.30908203 C-947.34179794 517.91683922 -952.09583634 516.40020099 -956.8515625 514.875 C-958.81573617 514.24756966 -960.7800148 513.62046784 -962.74438477 512.99365234 C-963.76871613 512.66677429 -964.79304749 512.33989624 -965.84841919 512.00311279 C-971.146812 510.31669384 -976.4503656 508.64670794 -981.75390625 506.9765625 C-1006.03921263 499.3250185 -1030.31497458 491.6455911 -1054.5625 483.875 C-1056.16171799 483.36323212 -1056.16171799 483.36323212 -1057.79324341 482.84112549 C-1070.2174859 478.86373768 -1082.61862976 474.82633822 -1094.98023987 470.6578064 C-1100.39536722 468.83818657 -1105.81911669 467.13059616 -1111.3125 465.5625 C-1118.78345613 463.42579128 -1126.13666317 460.98118469 -1133.5 458.5 C-1141.49729715 455.80666936 -1149.49005701 453.19174693 -1157.60327148 450.87182617 C-1163.62887377 449.13829445 -1169.59497114 447.23562027 -1175.5625 445.3125 C-1184.67651384 442.3755122 -1193.80408141 439.48711969 -1202.9463501 436.63964844 C-1221.87548746 430.74380751 -1240.77631355 424.77699572 -1259.56591797 418.44824219 C-1267.64754678 415.74545101 -1275.80437418 413.33086606 -1284 411 C-1283 409 -1283 409 -1281.1373291 408.19726562 C-1279.90629456 407.80571289 -1279.90629456 407.80571289 -1278.65039062 407.40625 C-1277.24119354 406.95194611 -1277.24119354 406.95194611 -1275.80352783 406.48846436 C-1274.76492615 406.16227112 -1273.72632446 405.83607788 -1272.65625 405.5 C-1271.57108093 405.15269836 -1270.48591187 404.80539673 -1269.36785889 404.4475708 C-1265.74753049 403.29105309 -1262.12381025 402.1455567 -1258.5 401 C-1255.94609088 400.18648647 -1253.39237713 399.37238063 -1250.83886719 398.55761719 C-1232.49092566 392.70878836 -1214.12064764 386.9298284 -1195.7512207 381.14892578 C-1175.07069952 374.63926335 -1154.43926843 367.98500564 -1133.81768036 361.29166412 C-1112.73424245 354.44873253 -1091.62480498 347.6990515 -1070.47674561 341.05783081 C-1046.84586972 333.63178617 -1023.28504535 325.99418647 -999.73480892 318.31690979 C-982.84848717 312.81264575 -965.94224579 307.38288316 -948.99287415 302.07575989 C-939.10713704 298.98006473 -929.2308647 295.85621407 -919.36328125 292.703125 C-918.67724886 292.48392269 -917.99121647 292.26472038 -917.28439522 292.03887558 C-913.033591 290.68034073 -908.78320026 289.3205157 -904.53290176 287.96039963 C-900.67344064 286.72559618 -896.81363376 285.49187437 -892.95385742 284.25805664 C-886.50556693 282.19669444 -880.0574218 280.13487824 -873.609375 278.07275391 C-859.83665243 273.66827505 -846.06269932 269.26764812 -832.28860474 264.86746216 C-829.29839945 263.91221952 -826.30822732 262.95687318 -823.31808472 262.00143433 C-806.98642302 256.78300195 -790.65334004 251.56909364 -774.31640625 246.3671875 C-768.50255129 244.51579102 -762.68875768 242.66420194 -756.875 240.8125 C-756.1615807 240.5852914 -755.44816139 240.35808281 -754.71312332 240.12398911 C-732.89716069 233.17571704 -711.10035678 226.1700465 -689.3156662 219.12439346 C-669.23207051 212.62930913 -649.1204406 206.22841619 -628.98547363 199.89440918 C-609.64233812 193.80757757 -590.33648026 187.61084782 -571.04370117 181.36685562 C-551.55419979 175.05945676 -532.04119913 168.83341535 -512.5 162.6875 C-495.63573007 157.3834336 -478.7974563 152.01207983 -462 146.5 C-444.00813148 140.59597419 -425.96623363 134.86228462 -407.90283203 129.18115234 C-388.90746046 123.20487874 -369.94561355 117.13157723 -351 111 C-329.95568017 104.18973918 -308.88587124 97.46674795 -287.78662109 90.828125 C-269.66708104 85.12545219 -251.57604783 79.33900235 -233.5 73.5 C-212.95058326 66.86229065 -192.37644705 60.30886125 -171.77801514 53.82492065 C-153.70608479 48.13504162 -135.65830691 42.37359809 -117.625 36.5625 C-102.21689885 31.59737674 -86.80616305 26.64568468 -71.35186768 21.8260498 C-61.6166848 18.78957612 -51.90390032 15.68735469 -42.19921875 12.5546875 C-40.9893782 12.16461014 -39.77953766 11.77453278 -38.53303528 11.37263489 C-32.46210801 9.4150823 -26.39264688 7.45318254 -20.32543945 5.48413086 C-18.10243819 4.76657257 -15.87937779 4.04919743 -13.65625 3.33203125 C-12.62364548 2.99513275 -11.59104095 2.65823425 -10.52714539 2.31112671 C-9.57781631 2.00583038 -8.62848724 1.70053406 -7.65039062 1.38598633 C-6.82108032 1.11716141 -5.99177002 0.84833649 -5.1373291 0.57136536 C-3 0 -3 0 0 0 Z " fill="#FEFEFE" transform="translate(1733,267)"/>
<path d="M0 0 C0.33 0 0.66 0 1 0 C1 30.03 1 60.06 1 91 C-28.7 91 -58.4 91 -89 91 C-89 90.67 -89 90.34 -89 90 C-87.98164062 89.86464844 -86.96328125 89.72929687 -85.9140625 89.58984375 C-60.30892319 85.83715551 -37.17091291 73.58116188 -21 53 C-9.37273645 37.03871662 -2.20958433 19.65367114 0 0 Z " fill="#FDFEFE" transform="translate(2127,2037)"/>
<path d="M0 0 C28.71 0 57.42 0 87 0 C87 29.04 87 58.08 87 88 C86.67 88 86.34 88 86 88 C85.87995605 87.43716309 85.75991211 86.87432617 85.63623047 86.29443359 C79.36791619 57.35876267 67.06417511 33.8506873 42 17 C41.10152344 16.38511719 40.20304687 15.77023437 39.27734375 15.13671875 C27.50328886 7.66822542 13.65661027 3.41499887 0 1 C0 0.67 0 0.34 0 0 Z " fill="#FDFEFE" transform="translate(2041,0)"/>
<path d="M0 0 C0.33 0 0.66 0 1 0 C1.12375 0.92296875 1.2475 1.8459375 1.375 2.796875 C5.08746081 27.30740878 17.44101837 51.21271298 37.1640625 66.69921875 C54.33246343 79.14211519 71.08987032 85.25805336 92 88 C92 88.33 92 88.66 92 89 C61.64 89 31.28 89 0 89 C0 59.63 0 30.26 0 0 Z " fill="#FDFEFE" transform="translate(0,2039)"/>
<path d="M0 0 C30.36 0 60.72 0 92 0 C92 0.33 92 0.66 92 1 C90.8140625 1.14695313 89.628125 1.29390625 88.40625 1.4453125 C61.35234591 5.07555782 38.02364284 17.26501689 21 39 C10.4898887 53.32225336 2.97433513 70.23098382 1 88 C0.67 88 0.34 88 0 88 C0 58.96 0 29.92 0 0 Z " fill="#FDFEFE" transform="translate(0,0)"/>
</svg>
